<svg width="84.000000" height="84.000000" viewBox="0 0 84 84" fill="none" xmlns="http://www.w3.org/2000/svg" xmlns:xlink="http://www.w3.org/1999/xlink">
	<desc>
			Created with Pixso.
	</desc>
	<defs>
		<clipPath id="clip10_676">
			<rect id="dog_p7abu5ebzspx" width="84.000000" height="84.000000" fill="white" fill-opacity="0"/>
		</clipPath>
	</defs>
	<g clip-path="url(#clip10_676)">
		<path id="path" d="M81.65 18.47C77.65 9.05 67.59 2.88 61.93 11.33C55.22 7.94 47.3 8.07 42 10.66C36.71 8.08 28.79 7.93 22.06 11.33C19.28 7.18 14.93 6.11 10.46 8.79C3.05 13.24 0 22.15 0 30.73C0 34.17 1.55 35.42 2.85 35.86C4.83 36.54 7.13 35.62 10.25 32.83C10.19 34.12 10.27 35.4 10.57 36.6C10.76 40.04 -5.24 52.84 11.26 69.34C13.41 71.49 16.16 73.83 19 73.83C20.44 73.83 21.82 73.24 22.9 72C25.84 74.23 31.47 76.67 41.99 76.67C52.52 76.67 58.15 74.23 61.09 72C62.17 73.23 63.55 73.83 64.99 73.83C67.83 73.83 70.58 71.49 72.73 69.34C89.23 52.83 73.23 40.05 73.42 36.6C73.72 35.4 73.8 34.12 73.74 32.83C76.86 35.62 79.16 36.54 81.14 35.86C82.44 35.42 83.99 34.17 83.99 30.73C84 26.31 83.18 22.07 81.65 18.47ZM25.29 67.13C28.21 57.89 29.29 46.48 42 46.48C52.32 46.48 55.11 53.88 57.69 63.55C58.02 64.81 58.35 66.02 58.7 67.15C53.07 72.76 31.13 73.02 25.29 67.13ZM70.33 21.26C69.5 20.18 68 19.91 66.85 20.63C65.71 21.35 65.29 22.82 65.9 24.03C66.81 25.85 69.2 31.83 68.32 35.34C66.42 42.95 83.68 50.96 69.01 65.63C66.47 68.17 65.35 68.52 65.07 68.57C64.95 68.46 64.67 68.12 64.29 67.21C64.25 66.77 64.09 66.35 63.84 65.99C62.58 62.16 61.56 56.1 58.69 50.92C59.99 47.55 59.1 43.71 58.98 43.22C58.63 41.81 57.2 40.96 55.8 41.31C54.39 41.66 53.53 43.09 53.89 44.49C53.92 44.64 53.97 44.88 54.01 45.18C50.81 42.56 46.78 41.23 42 41.23C50.72 41.23 47.03 34.67 42 34.67C36.96 34.67 33.27 41.23 42 41.23C37.21 41.23 33.18 42.56 29.98 45.18C30.02 44.89 30.06 44.66 30.1 44.49C30.46 43.09 29.6 41.66 28.19 41.31C26.79 40.96 25.36 41.81 25.01 43.22C24.89 43.71 24 47.55 25.31 50.92C21.55 57.67 20.72 66.83 18.92 68.57C18.65 68.52 17.52 68.17 14.98 65.63C0.32 50.97 17.56 42.93 15.67 35.34C14.79 31.83 17.12 25.98 18.09 24.03C18.7 22.82 18.28 21.35 17.14 20.63C15.99 19.91 14.49 20.18 13.66 21.26C11.71 23.79 7.87 28.26 5.25 30.14C5.49 17.27 13.46 11.77 15.96 12.68C17.32 13.18 18.28 15.17 18.5 15.81C19.05 17.45 21.01 18.13 22.45 17.17C29.29 12.61 37.29 13.69 40.54 15.85C41.42 16.44 42.58 16.43 43.45 15.85C46.7 13.69 54.7 12.61 61.54 17.17C62.98 18.12 64.94 17.45 65.49 15.81C65.65 15.32 66.62 13.21 68.02 12.69C70.52 11.76 78.5 17.23 78.74 30.14C76.12 28.26 72.31 23.82 70.33 21.26Z" fill="#FFFFFF" fill-opacity="1.000000" fill-rule="nonzero"/>
		<circle id="circle" cx="28.218750" cy="31.392822" r="3.281250" fill="#DBDBDB" fill-opacity="1.000000"/>
		<circle id="circle" cx="55.781250" cy="31.392822" r="3.281250" fill="#DBDBDB" fill-opacity="1.000000"/>
	</g>
</svg>
