<svg width="73.219727" height="72.000000" viewBox="0 0 73.2197 72" fill="none" xmlns="http://www.w3.org/2000/svg" xmlns:xlink="http://www.w3.org/1999/xlink">
	<desc>
			Created with Pixso.
	</desc>
	<defs/>
	<path id="path" d="M36.64 0C16.37 0 0 16.5 0 36.91C0 53.22 10.49 67.04 25.05 71.92C26.87 72.29 27.54 71.13 27.54 70.15C27.54 69.3 27.48 66.36 27.48 63.31C17.28 65.51 15.16 58.91 15.16 58.91C13.52 54.63 11.1 53.53 11.1 53.53C7.76 51.27 11.34 51.27 11.34 51.27C15.04 51.51 16.98 55.06 16.98 55.06C20.26 60.68 25.53 59.09 27.66 58.11C27.96 55.73 28.93 54.08 29.96 53.16C21.83 52.31 13.28 49.13 13.28 34.95C13.28 30.92 14.74 27.62 17.04 25.05C16.68 24.14 15.4 20.35 17.41 15.27C17.41 15.27 20.5 14.3 27.48 19.06C30.47 18.25 33.53 17.84 36.64 17.84C39.73 17.84 42.88 18.27 45.8 19.06C52.77 14.3 55.87 15.27 55.87 15.27C57.87 20.35 56.59 24.14 56.23 25.05C58.6 27.62 59.99 30.92 59.99 34.95C59.99 49.13 51.44 52.25 43.25 53.16C44.58 54.32 45.73 56.52 45.73 60.01C45.73 64.96 45.67 68.93 45.67 70.15C45.67 71.13 46.34 72.29 48.16 71.93C62.72 67.04 73.21 53.22 73.21 36.91C73.27 16.5 56.84 0 36.64 0Z" fill="#FFFFFF" fill-opacity="1.000000" fill-rule="evenodd"/>
</svg>
