<svg width="31.000000" height="42.000000" viewBox="0 0 31 42" fill="none" xmlns="http://www.w3.org/2000/svg" xmlns:xlink="http://www.w3.org/1999/xlink">
	<desc>
			Created with Pixso.
	</desc>
	<defs/>
	<path id="path" d="M5 0L5 14.26L7.72 14.26L7.72 2.74L26.96 2.74L20.85 6.89C20.16 7.36 19.74 8.15 19.74 8.98L19.74 32.46L7.72 32.46L7.72 23.13L5 23.13L5 35.21L19.74 35.21L19.74 41.02C19.74 41.38 19.94 41.71 20.26 41.88C20.57 42.05 20.96 42.03 21.25 41.83L31 35.21L31 0L5 0Z" fill="#21A848" fill-opacity="1.000000" fill-rule="nonzero"/>
	<path id="path" d="M11.11 23.61C11.11 23.76 11.2 23.9 11.33 23.96C11.47 24.02 11.62 24 11.74 23.9L18 18.5L11.74 13.09C11.62 12.99 11.47 12.97 11.33 13.03C11.2 13.09 11.11 13.23 11.11 13.38L11.11 16.12L0 16.12L0 20.87L11.11 20.87L11.11 23.61Z" fill="#21A848" fill-opacity="1.000000" fill-rule="nonzero"/>
</svg>
