<svg width="35.000000" height="42.000000" viewBox="0 0 35 42" fill="none" xmlns="http://www.w3.org/2000/svg" xmlns:xlink="http://www.w3.org/1999/xlink">
	<desc>
			Created with Pixso.
	</desc>
	<defs/>
	<path id="path" d="M9 0L9 14.26L11.72 14.26L11.72 2.74L30.96 2.74L24.85 6.89C24.16 7.36 23.74 8.15 23.74 8.98L23.74 32.46L11.72 32.46L11.72 23.13L9 23.13L9 35.21L23.74 35.21L23.74 41.02C23.74 41.38 23.94 41.71 24.26 41.88C24.57 42.05 24.96 42.03 25.25 41.83L35 35.21L35 0L9 0Z" fill="#B91B1B" fill-opacity="1.000000" fill-rule="nonzero"/>
	<path id="path" d="M6.5 23.61C6.5 23.76 6.42 23.9 6.29 23.96C6.16 24.02 6.01 24 5.91 23.9L0 18.5L5.91 13.09C6.01 12.99 6.16 12.97 6.29 13.03C6.42 13.09 6.5 13.23 6.5 13.38L6.5 16.12L17 16.12L17 20.87L6.5 20.87L6.5 23.61Z" fill="#B91B1B" fill-opacity="1.000000" fill-rule="nonzero"/>
</svg>
