<svg width="33.983643" height="27.073242" viewBox="0 0 33.9836 27.0732" fill="none" xmlns="http://www.w3.org/2000/svg" xmlns:xlink="http://www.w3.org/1999/xlink">
	<desc>
			Created with Pixso.
	</desc>
	<defs/>
	<path id="path" d="M24.28 20.87L24.3 20.89C24.26 21.44 23.79 21.85 23.24 21.8C22.69 21.76 22.28 21.29 22.33 20.74L22.35 20.72L24.28 20.87ZM8.37 18.71L8.39 18.7C8.9 18.93 9.12 19.5 8.89 20.01C8.66 20.51 8.09 20.73 7.58 20.51L7.57 20.48L8.37 18.71ZM32.97 5.22L32.99 5.2C33.54 5.2 33.98 5.64 33.98 6.19C33.98 6.75 33.54 7.18 32.99 7.18L32.97 7.16L32.97 5.22ZM22.2 7.16L22.17 7.18C21.62 7.18 21.18 6.75 21.18 6.19C21.18 5.64 21.62 5.2 22.17 5.2L22.2 5.22L22.2 7.16ZM28.54 11.41L28.56 11.43C28.56 11.98 28.12 12.42 27.57 12.42C27.01 12.42 26.57 11.98 26.57 11.43L26.59 11.41L28.54 11.41ZM26.59 1.01L26.57 0.99C26.57 0.43 27.01 0 27.57 0C28.12 0 28.56 0.43 28.56 0.99L28.54 1.01L26.59 1.01Z" fill="#000000" fill-opacity="0" fill-rule="nonzero"/>
	<path id="path" d="M23.31 20.81C23.86 13.67 21.03 6.52 13.89 5.62C8.9 4.98 9.62 8.3 7.18 9.17C5.89 9.48 3.73 7.32 2.64 7.94C1.67 8.48 1.43 10.17 1.16 11.22C0.08 15.37 4.24 17.92 7.99 19.6M32.99 6.19L27.57 6.19L22.17 6.19M27.57 6.19L27.57 11.43M27.57 6.19L27.57 0.99" stroke="#FFFFFF" stroke-opacity="0.898039" stroke-width="1.982772" stroke-linejoin="round" stroke-linecap="round"/>
	<path id="path" d="M2.4 10.01L2.39 10.03C1.96 10.38 1.34 10.3 1 9.86C0.66 9.42 0.74 8.81 1.17 8.47L1.2 8.47L2.4 10.01ZM4.27 7.53L4.29 7.51C4.84 7.46 5.31 7.87 5.35 8.42C5.39 8.97 4.99 9.44 4.44 9.48L4.42 9.46L4.27 7.53Z" fill="#000000" fill-opacity="0" fill-rule="nonzero"/>
	<path id="path" d="M1.78 9.25C2.36 8.81 3.31 8.57 4.36 8.49" stroke="#FFFFFF" stroke-opacity="0.898039" stroke-width="1.982772" stroke-linejoin="round" stroke-linecap="round"/>
	<path id="path" d="M18.42 15.59L18.4 15.56C18.54 15.02 19.07 14.7 19.6 14.84C20.14 14.97 20.46 15.5 20.33 16.03L20.31 16.05L18.42 15.59ZM13.25 11.77L13.24 11.74C13.47 11.24 14.05 11.02 14.55 11.25C15.06 11.47 15.28 12.05 15.05 12.56L15.03 12.57L13.25 11.77Z" fill="#000000" fill-opacity="0" fill-rule="nonzero"/>
	<path id="path" d="M19.37 15.8C19.04 17.11 18.76 26.91 14.89 26.02C7.87 23.99 12.04 16.84 14.15 12.15" stroke="#FFFFFF" stroke-opacity="0.898039" stroke-width="1.982772" stroke-linejoin="round" stroke-linecap="round"/>
	<path id="path" d="M11.56 11.38L11.57 11.41C11.31 11.91 10.73 12.1 10.23 11.85C9.74 11.6 9.55 11.01 9.8 10.51L9.82 10.51L11.56 11.38ZM10.07 10.01L10.06 9.99C10.33 9.5 10.92 9.33 11.41 9.6C11.89 9.87 12.07 10.46 11.8 10.95L11.77 10.95L10.07 10.01Z" fill="#000000" fill-opacity="0" fill-rule="nonzero"/>
	<path id="path" d="M10.68 10.96C10.81 10.7 10.78 10.74 10.93 10.47" stroke="#DBDBDB" stroke-opacity="0.898039" stroke-width="1.982772" stroke-linejoin="round" stroke-linecap="round"/>
</svg>
