<svg width="42.859863" height="34.146484" viewBox="0 0 42.8599 34.1465" fill="none" xmlns="http://www.w3.org/2000/svg" xmlns:xlink="http://www.w3.org/1999/xlink">
	<desc>
			Created with Pixso.
	</desc>
	<defs/>
	<path id="path" d="M30.63 26.33L30.65 26.35C30.6 27.05 30.01 27.55 29.31 27.5C28.61 27.45 28.1 26.86 28.16 26.16L28.18 26.14L30.63 26.33ZM10.56 23.59L10.58 23.58C11.22 23.87 11.5 24.6 11.21 25.24C10.92 25.88 10.2 26.15 9.56 25.86L9.55 25.84L10.56 23.59ZM41.58 6.58L41.6 6.56C42.3 6.56 42.85 7.11 42.85 7.81C42.85 8.51 42.3 9.06 41.6 9.06L41.58 9.04L41.58 6.58ZM27.99 9.04L27.97 9.06C27.27 9.06 26.72 8.51 26.72 7.81C26.72 7.11 27.27 6.56 27.97 6.56L27.99 6.58L27.99 9.04ZM36 14.39L36.02 14.41C36.02 15.11 35.47 15.66 34.77 15.66C34.07 15.66 33.52 15.11 33.52 14.41L33.54 14.39L36 14.39ZM33.54 1.27L33.52 1.25C33.52 0.55 34.07 0 34.77 0C35.47 0 36.02 0.55 36.02 1.25L36 1.27L33.54 1.27Z" fill="#000000" fill-opacity="0" fill-rule="nonzero"/>
	<path id="path" d="M29.4 26.25C30.09 17.24 26.52 8.23 17.51 7.09C11.23 6.29 12.13 10.47 9.06 11.57C7.43 11.96 4.7 9.23 3.32 10.01C2.11 10.7 1.81 12.82 1.46 14.15C0.1 19.38 5.35 22.6 10.07 24.72M41.6 7.81L34.77 7.81L27.97 7.81M34.77 7.81L34.77 14.41M34.77 7.81L34.77 1.25" stroke="#FFFFFF" stroke-opacity="0.898039" stroke-width="2.500798" stroke-linejoin="round" stroke-linecap="round"/>
	<path id="path" d="M3.02 12.63L3.02 12.66C2.47 13.09 1.69 12.99 1.26 12.44C0.83 11.89 0.93 11.12 1.48 10.69L1.51 10.69L3.02 12.63ZM5.39 9.49L5.4 9.47C6.1 9.41 6.69 9.92 6.75 10.62C6.8 11.32 6.29 11.91 5.59 11.96L5.57 11.94L5.39 9.49Z" fill="#000000" fill-opacity="0" fill-rule="nonzero"/>
	<path id="path" d="M2.25 11.67C2.97 11.11 4.17 10.82 5.5 10.71" stroke="#FFFFFF" stroke-opacity="0.898039" stroke-width="2.500798" stroke-linejoin="round" stroke-linecap="round"/>
	<path id="path" d="M23.23 19.65L23.21 19.63C23.38 18.95 24.05 18.55 24.73 18.71C25.4 18.88 25.81 19.54 25.64 20.23L25.62 20.24L23.23 19.65ZM16.71 14.84L16.7 14.81C16.99 14.17 17.72 13.9 18.36 14.18C18.99 14.47 19.27 15.2 18.98 15.84L18.96 15.85L16.71 14.84Z" fill="#000000" fill-opacity="0" fill-rule="nonzero"/>
	<path id="path" d="M24.43 19.93C24.02 21.58 23.67 33.95 18.78 32.82C9.92 30.26 15.18 21.24 17.84 15.32" stroke="#FFFFFF" stroke-opacity="0.898039" stroke-width="2.500798" stroke-linejoin="round" stroke-linecap="round"/>
	<path id="path" d="M14.58 14.37L14.59 14.39C14.27 15.02 13.53 15.26 12.91 14.94C12.28 14.63 12.04 13.89 12.36 13.26L12.38 13.25L14.58 14.37ZM12.7 12.62L12.69 12.6C13.03 11.98 13.78 11.77 14.39 12.11C15 12.45 15.22 13.2 14.88 13.81L14.85 13.82L12.7 12.62Z" fill="#000000" fill-opacity="0" fill-rule="nonzero"/>
	<path id="path" d="M13.47 13.83C13.64 13.5 13.59 13.55 13.78 13.2" stroke="#DBDBDB" stroke-opacity="0.898039" stroke-width="2.500798" stroke-linejoin="round" stroke-linecap="round"/>
</svg>
