<svg width="29.250000" height="32.500000" viewBox="0 0 29.25 32.5" fill="none" xmlns="http://www.w3.org/2000/svg" xmlns:xlink="http://www.w3.org/1999/xlink">
	<desc>
			Created with Pixso.
	</desc>
	<defs/>
	<path id="path" d="M19.5 8.12C19.5 11.71 16.58 14.62 13 14.62C9.41 14.62 6.5 11.71 6.5 8.12C6.5 4.53 9.41 1.62 13 1.62C16.58 1.62 19.5 4.53 19.5 8.12ZM27.6 24.39L27.62 24.37C28.53 24.37 29.25 25.09 29.25 26C29.25 26.9 28.53 27.62 27.62 27.62L27.6 27.6L27.6 24.39ZM17.89 27.6L17.87 27.62C16.96 27.62 16.25 26.9 16.25 26C16.25 25.09 16.96 24.37 17.87 24.37L17.89 24.39L17.89 27.6ZM21.14 21.14L21.12 21.12C21.12 20.21 21.84 19.5 22.75 19.5C23.65 19.5 24.37 20.21 24.37 21.12L24.35 21.14L21.14 21.14ZM24.35 30.85L24.37 30.87C24.37 31.78 23.65 32.5 22.75 32.5C21.84 32.5 21.12 31.78 21.12 30.87L21.14 30.85L24.35 30.85ZM6.73 20.84L6.7 20.85C5.95 20.34 5.75 19.35 6.25 18.6C6.75 17.84 7.75 17.64 8.5 18.14L8.51 18.17L6.73 20.84ZM15.69 19.06L15.7 19.03C16.56 18.73 17.47 19.17 17.78 20.02C18.08 20.88 17.64 21.79 16.79 22.1L16.76 22.09L15.69 19.06ZM12.16 29.27L12.18 29.25C13.09 29.25 13.81 29.96 13.81 30.87C13.81 31.78 13.09 32.5 12.18 32.5L12.16 32.48L12.16 29.27ZM7.29 17.89L7.31 17.87C8.22 17.87 8.93 18.59 8.93 19.5C8.93 20.4 8.22 21.12 7.31 21.12L7.29 21.1L7.29 17.89Z" fill="#000000" fill-opacity="0" fill-rule="nonzero"/>
	<path id="path" d="M27.62 26C27.62 26 21.68 26 17.87 26M22.75 21.12L22.75 26L22.75 30.87M7.6 19.5C9.15 20.52 11 21.12 12.99 21.12C14.13 21.12 15.23 20.92 16.25 20.57M12.18 30.87L4.22 30.87C3.31 30.87 2.85 30.87 2.51 30.69C2.2 30.54 1.95 30.29 1.8 29.98C1.62 29.64 1.62 29.18 1.62 28.27L1.62 24.37C1.62 21.68 3.8 19.5 6.5 19.5L7.31 19.5M13 14.62C9.41 14.62 6.5 11.71 6.5 8.12C6.5 4.53 9.41 1.62 13 1.62C16.58 1.62 19.5 4.53 19.5 8.12C19.5 11.71 16.58 14.62 13 14.62Z" stroke="#FFFFFF" stroke-opacity="1.000000" stroke-width="3.250004" stroke-linejoin="round" stroke-linecap="round"/>
</svg>
