<svg width="38.250000" height="42.500000" viewBox="0 0 38.25 42.5" fill="none" xmlns="http://www.w3.org/2000/svg" xmlns:xlink="http://www.w3.org/1999/xlink">
	<desc>
			Created with Pixso.
	</desc>
	<defs/>
	<path id="path" d="M25.5 10.62C25.5 15.31 21.69 19.12 17 19.12C12.3 19.12 8.5 15.31 8.5 10.62C8.5 5.93 12.3 2.12 17 2.12C21.69 2.12 25.5 5.93 25.5 10.62ZM36.1 31.89L36.12 31.87C37.31 31.87 38.25 32.81 38.25 34C38.25 35.18 37.31 36.12 36.12 36.12L36.1 36.1L36.1 31.89ZM23.39 36.1L23.37 36.12C22.18 36.12 21.25 35.18 21.25 34C21.25 32.81 22.18 31.87 23.37 31.87L23.39 31.89L23.39 36.1ZM27.64 27.64L27.62 27.62C27.62 26.43 28.56 25.5 29.75 25.5C30.93 25.5 31.87 26.43 31.87 27.62L31.85 27.64L27.64 27.64ZM31.85 40.35L31.87 40.37C31.87 41.56 30.93 42.5 29.75 42.5C28.56 42.5 27.62 41.56 27.62 40.37L27.64 40.35L31.85 40.35ZM8.8 27.26L8.77 27.26C7.78 26.61 7.52 25.31 8.17 24.32C8.83 23.33 10.13 23.07 11.12 23.73L11.13 23.75L8.8 27.26ZM20.52 24.92L20.54 24.89C21.66 24.49 22.85 25.06 23.25 26.19C23.65 27.31 23.08 28.5 21.95 28.9L21.93 28.89L20.52 24.92ZM15.91 38.27L15.93 38.25C17.12 38.25 18.06 39.18 18.06 40.37C18.06 41.56 17.12 42.5 15.93 42.5L15.91 42.48L15.91 38.27ZM9.54 23.39L9.56 23.37C10.75 23.37 11.68 24.31 11.68 25.5C11.68 26.68 10.75 27.62 9.56 27.62L9.54 27.6L9.54 23.39Z" fill="#000000" fill-opacity="0" fill-rule="nonzero"/>
	<path id="path" d="M36.12 34C36.12 34 28.35 34 23.37 34M29.75 27.62L29.75 34L29.75 40.37M9.94 25.5C11.96 26.84 14.39 27.62 16.99 27.62C18.49 27.62 19.92 27.36 21.25 26.89M15.93 40.37L5.52 40.37C4.33 40.37 3.73 40.37 3.28 40.14C2.88 39.93 2.56 39.61 2.35 39.21C2.12 38.76 2.12 38.16 2.12 36.97L2.12 31.87C2.12 28.35 4.97 25.5 8.5 25.5L9.56 25.5M17 19.12C12.3 19.12 8.5 15.31 8.5 10.62C8.5 5.93 12.3 2.12 17 2.12C21.69 2.12 25.5 5.93 25.5 10.62C25.5 15.31 21.69 19.12 17 19.12Z" stroke="#FFFFFF" stroke-opacity="1.000000" stroke-width="4.250002" stroke-linejoin="round" stroke-linecap="round"/>
</svg>
